<?xml version="1.0" standalone="no"?>
<!DOCTYPE svg PUBLIC "-//W3C//DTD SVG 20010904//EN"
 "http://www.w3.org/TR/2001/REC-SVG-20010904/DTD/svg10.dtd">
<svg version="1.0" xmlns="http://www.w3.org/2000/svg"
 width="512.000000pt" height="512.000000pt" viewBox="0 0 512.000000 512.000000"
 preserveAspectRatio="xMidYMid meet">

<g transform="translate(0.000000,512.000000) scale(0.100000,-0.100000)"
fill="#000000" stroke="none">
<path d="M2426 4300 c-351 -56 -649 -295 -765 -616 -67 -185 -79 -401 -31
-579 88 -329 333 -579 667 -682 81 -25 101 -27 263 -27 162 0 182 2 263 27
277 85 488 266 606 519 57 120 81 222 88 363 25 535 -386 980 -922 1000 -60 2
-137 0 -169 -5z m329 -190 c169 -43 313 -137 422 -274 243 -309 225 -735 -42
-1024 -395 -426 -1092 -292 -1310 253 -164 410 65 893 487 1029 149 48 295 54
443 16z"/>
<path d="M2305 2200 c-483 -43 -843 -186 -1086 -431 -136 -137 -229 -294 -285
-484 -35 -117 -39 -270 -10 -325 30 -58 87 -109 143 -130 53 -20 80 -20 1493
-20 1413 0 1440 0 1493 20 99 37 166 135 167 242 0 117 -42 273 -111 412 -192
385 -589 624 -1164 701 -142 19 -499 27 -640 15z m614 -186 c365 -47 642 -163
843 -352 84 -79 142 -158 197 -268 65 -130 104 -299 82 -356 -23 -61 66 -58
-1481 -58 -1548 0 -1454 -4 -1480 59 -23 56 16 225 81 355 189 378 590 592
1194 636 143 11 419 3 564 -16z"/>
</g>
</svg>
